<svg width="38" height="38" viewBox="0 0 38 38" fill="none" xmlns="http://www.w3.org/2000/svg">
<path d="M19.0004 24.9368C22.2796 24.9368 24.9379 22.2785 24.9379 18.9993C24.9379 15.7201 22.2796 13.0618 19.0004 13.0618C15.7212 13.0618 13.0629 15.7201 13.0629 18.9993C13.0629 22.2785 15.7212 24.9368 19.0004 24.9368Z" stroke="#CD0022" stroke-width="2" stroke-linecap="round" stroke-linejoin="round"/>
<path d="M26.8797 30.8746C24.2342 32.6304 21.0781 33.4524 17.9122 33.2102C14.7463 32.968 11.7519 31.6754 9.40422 29.5377C7.05654 27.3999 5.49001 24.5394 4.95319 21.4099C4.41637 18.2805 4.94001 15.0614 6.44102 12.2634C7.94203 9.46545 10.3344 7.24889 13.2386 5.96544C16.1428 4.68198 19.3925 4.40515 22.4719 5.17886C25.5514 5.95257 28.2842 7.73251 30.2369 10.2362C32.1896 12.74 33.2502 15.8241 33.2504 18.9993C33.2504 22.2785 32.0629 24.9368 29.0942 24.9368C26.1254 24.9368 24.9379 22.2785 24.9379 18.9993V13.0618" stroke="#CD0022" stroke-width="2" stroke-linecap="round" stroke-linejoin="round"/>
</svg>
