<svg width="38" height="38" viewBox="0 0 38 38" fill="none" xmlns="http://www.w3.org/2000/svg">
<path d="M22.5616 30.8739V23.7488C22.5616 23.4338 22.4365 23.1318 22.2138 22.9091C21.9911 22.6864 21.6891 22.5613 21.3741 22.5613H16.6241C16.3092 22.5613 16.0071 22.6864 15.7844 22.9091C15.5617 23.1318 15.4366 23.4338 15.4366 23.7488V30.8739C15.4366 31.1888 15.3115 31.4909 15.0889 31.7136C14.8662 31.9362 14.5642 32.0614 14.2493 32.0614L7.12515 32.0624C6.96919 32.0624 6.81476 32.0317 6.67067 31.972C6.52657 31.9123 6.39565 31.8249 6.28536 31.7146C6.17508 31.6043 6.08759 31.4734 6.02791 31.3293C5.96822 31.1852 5.9375 31.0308 5.9375 30.8749V17.1503C5.9375 16.9848 5.97207 16.8212 6.03899 16.6699C6.10592 16.5186 6.20372 16.383 6.32613 16.2717L18.2003 5.47509C18.4189 5.27634 18.7037 5.16621 18.9991 5.1662C19.2946 5.16619 19.5794 5.2763 19.798 5.47504L31.6738 16.2717C31.7962 16.383 31.8941 16.5186 31.961 16.6699C32.0279 16.8212 32.0625 16.9849 32.0625 17.1503V30.8749C32.0625 31.0308 32.0318 31.1852 31.9721 31.3293C31.9124 31.4734 31.8249 31.6043 31.7146 31.7146C31.6044 31.8249 31.4734 31.9123 31.3293 31.972C31.1852 32.0317 31.0308 32.0624 30.8749 32.0624L23.749 32.0614C23.4341 32.0614 23.1321 31.9363 22.9094 31.7136C22.6867 31.4909 22.5616 31.1888 22.5616 30.8739V30.8739Z" stroke="#0083CD" stroke-width="2" stroke-linecap="round" stroke-linejoin="round"/>
</svg>
