<svg width="38" height="38" viewBox="0 0 38 38" fill="none" xmlns="http://www.w3.org/2000/svg">
<path d="M13.7269 18.5273C14.9587 21.0456 17.0001 23.0776 19.5239 24.2979C19.7086 24.3854 19.9129 24.4233 20.1166 24.4079C20.3204 24.3925 20.5166 24.3243 20.686 24.21L24.4022 21.7319C24.5666 21.6223 24.7557 21.5555 24.9524 21.5374C25.1491 21.5193 25.3472 21.5506 25.5288 21.6284L32.4812 24.608C32.7174 24.7083 32.9145 24.8827 33.043 25.1048C33.1715 25.3269 33.2243 25.5848 33.1934 25.8395C32.9737 27.5591 32.1347 29.1395 30.8336 30.285C29.5325 31.4305 27.8585 32.0624 26.125 32.0625C20.7709 32.0625 15.6362 29.9356 11.8503 26.1497C8.06439 22.3638 5.9375 17.2291 5.9375 11.875C5.93759 10.1415 6.56954 8.46748 7.71501 7.16637C8.86049 5.86526 10.4409 5.02629 12.1604 4.80655C12.4152 4.77572 12.673 4.82851 12.8952 4.95698C13.1173 5.08544 13.2917 5.28261 13.392 5.51878L16.3742 12.4772C16.4513 12.6572 16.4827 12.8535 16.4657 13.0485C16.4486 13.2436 16.3835 13.4314 16.2763 13.5953L13.8068 17.3685C13.6944 17.5383 13.628 17.7343 13.614 17.9374C13.6 18.1404 13.6389 18.3437 13.7269 18.5273V18.5273Z" stroke="#CD0022" stroke-width="2" stroke-linecap="round" stroke-linejoin="round"/>
</svg>
