<svg width="38" height="38" viewBox="0 0 38 38" fill="none" xmlns="http://www.w3.org/2000/svg">
<path fill-rule="evenodd" clip-rule="evenodd" d="M19 38C8.50659 38 0 29.4934 0 19C0 8.50659 8.50659 0 19 0C29.4934 0 38 8.50659 38 19C38 29.4934 29.4934 38 19 38ZM19.6263 29.5707C25.8554 29.5682 30.9217 24.5007 30.9242 18.2729C30.9254 15.2541 29.7513 12.4156 27.6182 10.2801C25.4852 8.14456 22.6485 6.96797 19.6262 6.96667C13.3988 6.96667 8.33053 12.0347 8.32806 18.2639C8.32721 20.2552 8.84746 22.1987 9.83615 23.9122L8.23333 29.7667L14.2226 28.1956C15.8728 29.0957 17.7307 29.5701 19.6216 29.5707H19.6263Z" fill="#00CD46"/>
<path fill-rule="evenodd" clip-rule="evenodd" d="M14.5001 26.1503L10.946 27.0826L11.8946 23.6173L11.6713 23.2621C10.7313 21.767 10.2349 20.039 10.2356 18.2646C10.2377 13.0871 14.4502 8.87494 19.63 8.87494C22.1382 8.87581 24.4959 9.8538 26.2688 11.6288C28.0418 13.4038 29.0176 15.7631 29.0166 18.2722C29.0145 23.4501 24.802 27.6627 19.6263 27.6627H19.6225C17.9374 27.662 16.2847 27.2093 14.843 26.3538L14.5001 26.1503ZM25.3181 20.9595C25.2476 20.8417 25.0594 20.7711 24.7771 20.6297C24.4948 20.4884 23.1069 19.8056 22.8481 19.7113C22.5894 19.6171 22.4011 19.5701 22.2129 19.8526C22.0248 20.1351 21.4838 20.7711 21.3191 20.9595C21.1544 21.1478 20.9897 21.1715 20.7075 21.0301C20.4252 20.8888 19.5156 20.5908 18.4373 19.629C17.5981 18.8804 17.0315 17.956 16.8669 17.6734C16.7022 17.3908 16.8493 17.238 16.9906 17.0973C17.1176 16.9707 17.273 16.7675 17.4141 16.6027C17.5552 16.4379 17.6023 16.32 17.6964 16.1318C17.7905 15.9433 17.7434 15.7785 17.6729 15.6372C17.6023 15.4959 17.0377 14.1063 16.8025 13.5411C16.5733 12.9906 16.3406 13.0652 16.1673 13.0565C16.0028 13.0482 15.8144 13.0465 15.6263 13.0465C15.4381 13.0465 15.1322 13.1171 14.8735 13.3998C14.6147 13.6824 13.8855 14.3654 13.8855 15.7548C13.8855 17.1443 14.897 18.4867 15.0382 18.6751C15.1793 18.8636 17.0287 21.7149 19.8606 22.9377C20.5341 23.2285 21.0599 23.4022 21.47 23.5323C22.1462 23.7472 22.7617 23.7169 23.248 23.6442C23.7904 23.5632 24.9182 22.9613 25.1535 22.3019C25.3887 21.6424 25.3887 21.0772 25.3181 20.9595Z" fill="#00CD46"/>
</svg>
